Coordinates
version=1
nRows=35
nColumns=38
inDegrees=no

Units are S.I. units (second, meters, Newtons, ...)
If the header above contains a line with 'inDegrees', this indicates whether rotational values are in degrees (yes) or radians (no).

endheader
time	pelvis_tilt	pelvis_list	pelvis_rotation	pelvis_tx	pelvis_ty	pelvis_tz	hip_flexion_r	hip_adduction_r	hip_rotation_r	knee_angle_r	ankle_angle_r	subtalar_angle_r	mtp_angle_r	hip_flexion_l	hip_adduction_l	hip_rotation_l	knee_angle_l	ankle_angle_l	subtalar_angle_l	mtp_angle_l	lumbar_extension	lumbar_bending	lumbar_rotation	arm_flex_r	arm_add_r	arm_rot_r	elbow_flex_r	pro_sup_r	wrist_flex_r	wrist_dev_r	arm_flex_l	arm_add_l	arm_rot_l	elbow_flex_l	pro_sup_l	wrist_flex_l	wrist_dev_l
25	-0.0841503	1.26	1.71792	0.67652	0.205514	0.770754	1.2608	-0.109388	0.00965052	1.49574	0.056159	0	0	1.18803	-0.166822	-0.0395705	1.50834	0.0255974	0	0	-0.811237	-0.0728396	-0.00704327	0.984601	-0.558333	0.189493	1.30956	0.735412	0	0	1.24409	-0.549171	0.448124	1.24158	0.85747	0	0
25.01	-0.0874373	1.25671	1.7194	0.676601	0.205212	0.768176	1.26976	-0.109055	0.0112016	1.50259	0.0577083	0	0	1.19628	-0.166215	-0.0382992	1.51624	0.0267813	0	0	-0.81297	-0.0736813	-0.00732595	0.987681	-0.55767	0.189418	1.31019	0.736953	0	0	1.24412	-0.548876	0.44398	1.24301	0.859151	0	0
25.02	-0.0901726	1.25296	1.72063	0.676592	0.204945	0.765683	1.27879	-0.10904	0.0125321	1.50898	0.0590423	0	0	1.20485	-0.165459	-0.0372316	1.52381	0.0278883	0	0	-0.81421	-0.0743154	-0.0076145	0.990294	-0.557114	0.188847	1.31088	0.738604	0	0	1.24395	-0.548187	0.439677	1.24441	0.861025	0	0
25.03	-0.0928748	1.249	1.72222	0.676532	0.204684	0.763282	1.28782	-0.109643	0.0136856	1.51511	0.060193	0	0	1.21337	-0.164472	-0.0363912	1.53108	0.0291412	0	0	-0.815435	-0.0747222	-0.00804017	0.992683	-0.556781	0.188024	1.31173	0.740669	0	0	1.24432	-0.547849	0.436431	1.24578	0.86349	0	0
25.04	-0.0957775	1.24514	1.72472	0.67635	0.204413	0.761023	1.29642	-0.111395	0.0144127	1.52087	0.0612347	0	0	1.22148	-0.16279	-0.0357151	1.53776	0.0301571	0	0	-0.816735	-0.0745985	-0.00894083	0.995172	-0.556206	0.186928	1.31218	0.742893	0	0	1.24487	-0.547131	0.433297	1.24647	0.866181	0	0
25.05	-0.0989255	1.24148	1.72807	0.676113	0.204144	0.758888	1.30448	-0.113842	0.0150742	1.52638	0.0622598	0	0	1.22915	-0.160755	-0.0352454	1.54384	0.0308066	0	0	-0.818223	-0.0741176	-0.0104605	0.997866	-0.555433	0.185952	1.31242	0.745188	0	0	1.24558	-0.546034	0.429959	1.24665	0.868527	0	0
25.06	-0.10177	1.23819	1.73153	0.675945	0.20393	0.756856	1.3119	-0.11603	0.016264	1.53199	0.0632446	0	0	1.2363	-0.159156	-0.0350948	1.54961	0.0312375	0	0	-0.820061	-0.0735122	-0.0123475	1.00054	-0.554416	0.185028	1.31261	0.747334	0	0	1.24659	-0.545073	0.426844	1.24663	0.870207	0	0
25.07	-0.104021	1.23492	1.73445	0.67585	0.203778	0.754921	1.31907	-0.117485	0.0180652	1.53763	0.0641117	0	0	1.24324	-0.158304	-0.0353451	1.55504	0.0316066	0	0	-0.822016	-0.0730099	-0.0143661	1.00316	-0.55331	0.18427	1.31296	0.749174	0	0	1.24796	-0.544896	0.424426	1.24698	0.871488	0	0
25.08	-0.105786	1.23062	1.73568	0.675802	0.203486	0.753026	1.32717	-0.118437	0.0191513	1.54199	0.0647847	0	0	1.251	-0.158534	-0.0359168	1.55988	0.032052	0	0	-0.823096	-0.0731396	-0.0155881	1.00625	-0.552486	0.183929	1.31353	0.750825	0	0	1.24954	-0.54509	0.422188	1.24754	0.872927	0	0
25.09	-0.107273	1.22616	1.73573	0.675754	0.203117	0.751223	1.33517	-0.119221	0.0195492	1.54536	0.0653786	0	0	1.25856	-0.159483	-0.0366425	1.56426	0.0327181	0	0	-0.823967	-0.0736929	-0.0161505	1.00989	-0.551701	0.183783	1.31375	0.752304	0	0	1.25122	-0.545122	0.41991	1.2479	0.874574	0	0
25.1	-0.107214	1.22262	1.73484	0.675666	0.20292	0.749526	1.3419	-0.119553	0.0202973	1.5491	0.0658629	0	0	1.26497	-0.160459	-0.0368731	1.56856	0.0335665	0	0	-0.825414	-0.0734155	-0.0166654	1.01332	-0.551129	0.18402	1.31407	0.753458	0	0	1.25263	-0.545082	0.417634	1.24814	0.876161	0	0
25.11	-0.106705	1.21806	1.73302	0.67553	0.202657	0.747824	1.34966	-0.120036	0.0204037	1.55221	0.0660824	0	0	1.2722	-0.161385	-0.0370069	1.57246	0.0343592	0	0	-0.825654	-0.0732961	-0.0169253	1.01684	-0.550842	0.184855	1.31443	0.754299	0	0	1.25354	-0.545051	0.41499	1.24851	0.877479	0	0
25.12	-0.106466	1.21241	1.7311	0.675353	0.202254	0.746156	1.35871	-0.12118	0.0197343	1.5548	0.0660532	0	0	1.28048	-0.161993	-0.0372193	1.57589	0.0349133	0	0	-0.824717	-0.0734385	-0.0172969	1.0206	-0.550521	0.186094	1.31462	0.755157	0	0	1.25413	-0.545197	0.412028	1.24901	0.878533	0	0
25.13	-0.106733	1.20749	1.7304	0.67516	0.201907	0.744645	1.36686	-0.122851	0.0192845	1.55771	0.0661547	0	0	1.28789	-0.161933	-0.0374114	1.57911	0.0352172	0	0	-0.824438	-0.0733113	-0.0183821	1.02439	-0.550053	0.187466	1.31466	0.756156	0	0	1.25514	-0.545684	0.40972	1.24935	0.879511	0	0
25.14	-0.107217	1.20306	1.73069	0.674958	0.201651	0.743208	1.37414	-0.124735	0.0194146	1.56068	0.0664684	0	0	1.29473	-0.161249	-0.0375306	1.58229	0.035374	0	0	-0.824351	-0.0727527	-0.0200186	1.02781	-0.549535	0.188815	1.31478	0.757201	0	0	1.25615	-0.546235	0.407694	1.24942	0.880671	0	0
25.15	-0.107717	1.1984	1.73121	0.674744	0.201466	0.741818	1.38124	-0.126556	0.0196948	1.56324	0.0669111	0	0	1.30171	-0.160343	-0.0377021	1.58524	0.0354081	0	0	-0.823858	-0.0721463	-0.0218152	1.03074	-0.549185	0.190092	1.31526	0.758059	0	0	1.2568	-0.546902	0.405742	1.24976	0.88194	0	0
25.16	-0.108555	1.19369	1.73189	0.674576	0.201278	0.740491	1.38823	-0.128104	0.0200085	1.56545	0.0673357	0	0	1.30871	-0.159534	-0.0379152	1.58803	0.0354421	0	0	-0.8231	-0.0718921	-0.0234974	1.03335	-0.548833	0.191094	1.31574	0.758747	0	0	1.25736	-0.547655	0.404003	1.25021	0.883037	0	0
25.17	-0.109405	1.189	1.7322	0.674463	0.201106	0.739204	1.39514	-0.129217	0.0203862	1.56749	0.0676939	0	0	1.31559	-0.159167	-0.0381691	1.5908	0.0357244	0	0	-0.822152	-0.0720756	-0.0251424	1.03579	-0.548159	0.191889	1.3161	0.759541	0	0	1.25769	-0.548571	0.402006	1.25092	0.883759	0	0
25.18	-0.110352	1.18528	1.73224	0.674364	0.20097	0.73804	1.40097	-0.130105	0.0207266	1.56945	0.0679317	0	0	1.32117	-0.159069	-0.0382715	1.5934	0.0363464	0	0	-0.822151	-0.0725233	-0.0266084	1.03849	-0.547346	0.192584	1.31628	0.76056	0	0	1.25839	-0.549197	0.40002	1.25148	0.88371	0	0
25.19	-0.110864	1.18222	1.73174	0.674192	0.20086	0.736967	1.40609	-0.131119	0.0207144	1.57143	0.0682089	0	0	1.32588	-0.158877	-0.0380312	1.59582	0.0372344	0	0	-0.822905	-0.0727264	-0.0279228	1.04162	-0.546581	0.19354	1.31627	0.762353	0	0	1.25901	-0.549923	0.397866	1.25244	0.884037	0	0
25.2	-0.110751	1.17948	1.73052	0.673979	0.200783	0.735942	1.41086	-0.132045	0.0204495	1.57341	0.0687201	0	0	1.33013	-0.158722	-0.0375972	1.59817	0.038447	0	0	-0.823728	-0.072735	-0.0290267	1.04477	-0.545828	0.194516	1.31625	0.764714	0	0	1.25916	-0.550956	0.39559	1.25381	0.885171	0	0
25.21	-0.110313	1.17679	1.72904	0.673748	0.200737	0.734971	1.41552	-0.132951	0.0200781	1.57533	0.0695074	0	0	1.33422	-0.158295	-0.0369979	1.60045	0.0400784	0	0	-0.82429	-0.0725417	-0.0299922	1.04769	-0.54509	0.195233	1.31632	0.767861	0	0	1.25894	-0.552093	0.393168	1.25539	0.887505	0	0
25.22	-0.109822	1.17435	1.72765	0.673513	0.200701	0.734081	1.41974	-0.133801	0.0198458	1.57716	0.0705644	0	0	1.33801	-0.157503	-0.0363667	1.60263	0.0418341	0	0	-0.824791	-0.0722629	-0.0307683	1.05034	-0.544451	0.195625	1.31631	0.771843	0	0	1.25868	-0.553021	0.391028	1.25697	0.890734	0	0
25.23	-0.109383	1.17218	1.72631	0.6733	0.200688	0.73327	1.42343	-0.1344	0.0197643	1.5789	0.0721886	0	0	1.34149	-0.156583	-0.0356808	1.60487	0.0438286	0	0	-0.825414	-0.0721298	-0.0312829	1.05265	-0.543963	0.195578	1.31633	0.776679	0	0	1.25845	-0.553768	0.389067	1.2586	0.89439	0	0
25.24	-0.109037	1.17038	1.72496	0.67314	0.200709	0.732545	1.42646	-0.134676	0.0197899	1.58039	0.0747786	0	0	1.34458	-0.155863	-0.0351028	1.60707	0.0461618	0	0	-0.826483	-0.0724759	-0.0317888	1.05468	-0.543432	0.195108	1.31626	0.782669	0	0	1.25863	-0.554189	0.387214	1.25998	0.898737	0	0
25.25	-0.108852	1.1692	1.72363	0.673047	0.200764	0.731937	1.42863	-0.134643	0.0197268	1.58169	0.0784562	0	0	1.34687	-0.155485	-0.0345798	1.60911	0.0495725	0	0	-0.828443	-0.0730843	-0.0320307	1.05681	-0.543024	0.19437	1.31618	0.79031	0	0	1.25921	-0.553691	0.384725	1.26072	0.905703	0	0
25.26	-0.109121	1.16915	1.72237	0.673028	0.200852	0.731504	1.42925	-0.134033	0.0196463	1.58256	0.0834797	0	0	1.34756	-0.155323	-0.0338603	1.61088	0.0552032	0	0	-0.831595	-0.0739925	-0.0319115	1.05933	-0.542477	0.193599	1.31564	0.800329	0	0	1.26021	-0.552601	0.381564	1.26067	0.918263	0	0
25.27	-0.109058	1.16621	1.72071	0.673063	0.200905	0.730729	1.43348	-0.132961	0.0203798	1.58387	0.0786413	0	0	1.35167	-0.154626	-0.032505	1.61282	0.0505478	0	0	-0.830611	-0.0753439	-0.0315547	1.06058	-0.543338	0.1945	1.31551	0.790447	0	0	1.26108	-0.553386	0.384392	1.26154	0.90508	0	0
25.28	-0.108825	1.16412	1.71898	0.672978	0.200978	0.730094	1.43671	-0.13234	0.0208115	1.58514	0.0751402	0	0	1.35468	-0.153961	-0.0313412	1.61455	0.0485313	0	0	-0.830306	-0.0760512	-0.031257	1.06256	-0.543799	0.195724	1.31473	0.783498	0	0	1.26129	-0.553325	0.384963	1.26164	0.897673	0	0
25.29	-0.107921	1.16206	1.71651	0.672832	0.201133	0.729531	1.4397	-0.131793	0.0207652	1.58629	0.0724833	0	0	1.35736	-0.153797	-0.0304577	1.61609	0.0481168	0	0	-0.830081	-0.0764579	-0.0310917	1.06476	-0.544017	0.197262	1.31402	0.778993	0	0	1.26088	-0.553586	0.384242	1.26215	0.893932	0	0
25.3	-0.105781	1.15786	1.71297	0.67263	0.2013	0.728735	1.44522	-0.131253	0.0207193	1.58774	0.0637542	0	0	1.36257	-0.153513	-0.0291642	1.61781	0.0500632	0	0	-0.826868	-0.0761252	-0.0326185	1.06787	-0.542523	0.201722	1.31188	0.771573	0	0	1.25724	-0.555875	0.380459	1.26446	0.889429	0	0
25.31	-0.104878	1.15595	1.71069	0.672444	0.201498	0.728265	1.44776	-0.130953	0.0206246	1.58868	0.0637688	0	0	1.36487	-0.153578	-0.028574	1.61921	0.0510038	0	0	-0.826847	-0.0764179	-0.0327857	1.06987	-0.542319	0.20292	1.31134	0.772185	0	0	1.25704	-0.555965	0.379053	1.26443	0.889821	0	0
25.32	-0.104273	1.15414	1.70899	0.672238	0.201694	0.72783	1.44993	-0.131077	0.0204954	1.58924	0.0640873	0	0	1.36708	-0.153403	-0.0282035	1.62052	0.0517153	0	0	-0.826865	-0.0766069	-0.0330339	1.0716	-0.54214	0.203744	1.31097	0.772475	0	0	1.25728	-0.556273	0.37855	1.26421	0.890656	0	0
25.33	-0.103681	1.15224	1.70769	0.672023	0.201929	0.727399	1.45204	-0.131738	0.0199947	1.58965	0.0648216	0	0	1.36942	-0.15299	-0.0278775	1.62174	0.052547	0	0	-0.826627	-0.0765853	-0.0333555	1.0729	-0.542113	0.204324	1.31084	0.772646	0	0	1.25753	-0.556692	0.378501	1.26404	0.891538	0	0
25.34	-0.103303	1.15091	1.70674	0.671851	0.202192	0.72704	1.45334	-0.132491	0.019334	1.58988	0.0648313	0	0	1.37101	-0.152889	-0.0276369	1.62283	0.052778	0	0	-0.827335	-0.0768371	-0.0336419	1.07401	-0.542558	0.204431	1.31133	0.772687	0	0	1.25892	-0.557053	0.379433	1.26399	0.891538	0	0
